<svg xmlns="http://www.w3.org/2000/svg" width="183.071" height="192.469" viewBox="0 0 183.071 192.469">
  <defs>
    <style>
      .cls-1 {
        fill: #fff;
      }
    </style>
  </defs>
  <path id="Icon_zocial-instagram" data-name="Icon zocial-instagram" class="cls-1" d="M16.3,192a21.517,21.517,0,0,1-10.016-5.98A21.446,21.446,0,0,1,.737,175.984c-.644-2.67-.68-5.19-.68-79.465C.022,13.067-.086,17.655,1.989,12.954A21.919,21.919,0,0,1,12.4,2.085C17.013-.059,12.506.054,92.491.167L166.18.242l2.289.827a22.284,22.284,0,0,1,13.736,14.441l.787,2.407.072,77.472c.107,86.047.286,79.616-2.325,85.182a21.829,21.829,0,0,1-9.05,9.515c-5.223,2.708.715,2.52-80.271,2.482C29.5,192.531,18.122,192.456,16.3,192Zm142.585-22.9c2.933-2.181,3-2.407,3.112-16.735.107-13.952.036-14.667-2.146-16.886-1.967-2.031-2.9-2.144-15.847-2.106l-11.8.038-1.61.9a9,9,0,0,0-2.647,2.633l-1.073,1.655-.036,12.448c-.036,6.807.107,13.012.286,13.727a6.964,6.964,0,0,0,3.649,4.739l1.789.94,12.413-.113,12.377-.113ZM98.715,132.584c13.7-2.971,24.5-14.4,27.4-28.958A48.271,48.271,0,0,0,126.51,91.4c-1.538-11.583-8.621-22.226-18.351-27.679a37.211,37.211,0,0,0-9.444-3.686c-.68-.075-2.111-.3-3.184-.489a32.587,32.587,0,0,0-14.809,1.617,34.491,34.491,0,0,0-17.1,12.749,38.284,38.284,0,0,0,.68,45.694,34.173,34.173,0,0,0,34.412,12.975ZM36.437,108.177A62.444,62.444,0,0,1,41.159,70a55.3,55.3,0,0,1,10.7-15.457c12.949-13.614,30.37-19.594,48.685-16.7,21.534,3.347,40.171,21.173,45.573,43.625a61.308,61.308,0,0,1,1.467,21.06,43.3,43.3,0,0,1-1.467,8.123c-.107.188-.072.338.107.376,1.359.15,15.274.113,15.525-.075.215-.113.286-16.811.25-41.97l-.107-41.782-1.073-1.617a9.094,9.094,0,0,0-2.683-2.482l-1.61-.865L91.2,22.356l-65.283.075-1.467,1.015a9.678,9.678,0,0,0-2.289,2.445l-.859,1.429L21.2,68.877c-.036,22.866-.036,41.707.072,41.933.072.226,2.969.376,7.977.376h7.834Z" transform="translate(-0.044 -0.117)"/>
</svg>
